<svg xmlns="http://www.w3.org/2000/svg" viewBox="0 0 272 332" width="272" height="332" role="img" aria-labelledby="title desc"><title id="title">Mexico City red pedestrian signal</title><desc id="desc">Photo-traced from a Mexico City pedestrian-signal photograph; source crop 820,790,1080,1110; families red,magenta</desc><g shape-rendering="crispEdges"><path fill="rgb(120,0,0)" d="M170 110h1v1h-1ZM164 113h1v1h-1ZM181 121h1v1h-1ZM157 127h1v1h-1ZM176 128h1v1h-1ZM162 134h1v1h-1ZM169 134h1v1h-1ZM175 134h1v1h-1ZM153 142h1v1h-1ZM156 147h1v1h-1ZM162 148h1v1h-1ZM163 154h1v1h-1ZM163 155h1v1h-1ZM165 155h1v1h-1ZM165 156h1v1h-1ZM181 156h1v1h-1ZM165 157h1v1h-1ZM168 157h1v1h-1ZM179 157h1v1h-1ZM166 159h1v1h-1ZM145 160h1v1h-1ZM165 162h1v1h-1ZM177 162h1v1h-1ZM150 163h1v1h-1ZM162 163h1v1h-1ZM164 163h1v1h-1ZM178 163h1v1h-1ZM187 163h1v1h-1ZM188 163h1v1h-1ZM162 164h1v1h-1ZM163 165h1v1h-1ZM164 168h1v1h-1ZM164 169h1v1h-1ZM162 175h1v1h-1ZM157 177h1v1h-1ZM165 177h1v1h-1ZM174 177h1v1h-1ZM174 178h1v1h-1ZM173 179h1v1h-1ZM174 179h1v1h-1ZM174 180h1v1h-1ZM180 180h1v1h-1ZM163 182h1v1h-1ZM174 183h1v1h-1ZM179 186h1v1h-1ZM151 187h1v1h-1ZM181 187h1v1h-1ZM176 188h1v1h-1ZM174 190h1v1h-1ZM181 193h1v1h-1ZM177 196h1v1h-1ZM181 199h1v1h-1ZM176 200h1v1h-1ZM177 200h1v1h-1ZM150 201h1v1h-1ZM176 201h1v1h-1ZM174 203h1v1h-1ZM175 203h1v1h-1ZM176 204h1v1h-1ZM176 212h1v1h-1ZM167 214h1v1h-1Z"/><path fill="rgb(120,0,24)" d="M189 134h1v1h-1ZM157 142h1v1h-1ZM190 154h1v1h-1ZM150 190h1v1h-1ZM176 192h1v1h-1ZM175 199h1v1h-1ZM175 200h1v1h-1Z"/><path fill="rgb(120,24,0)" d="M150 194h1v1h-1Z"/><path fill="rgb(120,24,24)" d="M188 130h1v1h-1ZM181 145h1v1h-1ZM184 145h1v1h-1ZM144 151h1v1h-1ZM181 173h1v1h-1ZM182 173h1v1h-1Z"/><path fill="rgb(120,48,0)" d="M193 90h1v1h-1ZM195 90h1v1h-1ZM196 90h1v1h-1ZM197 90h1v1h-1ZM204 96h1v1h-1ZM206 96h1v1h-1ZM203 97h1v1h-1ZM223 97h1v1h-1ZM207 98h1v1h-1ZM209 100h1v1h-1ZM224 100h1v1h-1ZM225 100h1v1h-1ZM215 106h1v1h-1ZM234 107h1v1h-1ZM237 109h1v1h-1ZM226 110h1v1h-1ZM227 110h1v1h-1ZM235 110h1v1h-1ZM237 110h1v1h-1ZM226 111h1v1h-1ZM235 111h1v1h-1ZM230 112h1v1h-1ZM230 113h1v1h-1ZM234 134h1v1h-1Z"/><path fill="rgb(120,48,48)" d="M154 126h1v1h-1Z"/><path fill="rgb(120,72,0)" d="M193 89h1v1h-1ZM194 90h1v1h-1ZM197 91h1v1h-1ZM198 91h1v1h-1ZM199 95h1v1h-1ZM224 96h1v1h-1ZM224 97h1v1h-1ZM225 97h1v1h-1ZM218 105h1v1h-1ZM223 110h1v1h-1ZM224 111h1v1h-1ZM226 112h1v1h-1ZM234 129h1v1h-1ZM233 135h1v1h-1ZM234 136h1v1h-1ZM234 139h1v1h-1ZM235 145h1v1h-1Z"/><path fill="rgb(120,72,24)" d="M197 95h1v1h-1ZM197 96h1v1h-1ZM220 115h1v1h-1ZM257 134h1v1h-1ZM254 144h1v1h-1ZM254 145h1v1h-1ZM254 146h1v1h-1ZM256 147h1v1h-1ZM257 147h1v1h-1ZM255 153h1v1h-1ZM256 153h1v1h-1ZM221 280h1v1h-1Z"/><path fill="rgb(120,72,48)" d="M256 124h1v1h-1ZM257 125h1v1h-1ZM257 126h1v1h-1ZM257 154h1v1h-1ZM257 189h1v1h-1Z"/><path fill="rgb(120,96,72)" d="M260 122h1v1h-1Z"/><path fill="rgb(144,0,0)" d="M167 111h1v1h-1ZM165 112h1v1h-1ZM166 112h1v1h-1ZM165 113h1v1h-1ZM176 113h1v1h-1ZM163 115h1v1h-1ZM163 116h1v1h-1ZM180 116h1v1h-1ZM162 117h1v1h-1ZM181 117h1v1h-1ZM181 118h1v1h-1ZM181 119h1v1h-1ZM181 120h1v1h-1ZM162 121h1v1h-1ZM162 122h1v1h-1ZM180 122h1v1h-1ZM162 123h1v1h-1ZM180 123h1v1h-1ZM162 124h1v1h-1ZM163 124h1v1h-1ZM162 125h1v1h-1ZM163 125h1v1h-1ZM179 125h1v1h-1ZM162 126h1v1h-1ZM163 126h1v1h-1ZM177 126h1v1h-1ZM158 127h1v1h-1ZM159 127h1v1h-1ZM160 127h1v1h-1ZM161 127h1v1h-1ZM175 127h1v1h-1ZM176 127h1v1h-1ZM177 127h1v1h-1ZM156 128h1v1h-1ZM157 128h1v1h-1ZM158 128h1v1h-1ZM173 128h1v1h-1ZM174 128h1v1h-1ZM175 128h1v1h-1ZM177 128h1v1h-1ZM174 129h1v1h-1ZM175 129h1v1h-1ZM176 129h1v1h-1ZM179 129h1v1h-1ZM174 130h1v1h-1ZM175 130h1v1h-1ZM180 130h1v1h-1ZM181 130h1v1h-1ZM152 132h1v1h-1ZM186 132h1v1h-1ZM152 133h1v1h-1ZM154 133h1v1h-1ZM155 133h1v1h-1ZM156 133h1v1h-1ZM158 133h1v1h-1ZM159 133h1v1h-1ZM173 133h1v1h-1ZM174 133h1v1h-1ZM180 133h1v1h-1ZM181 133h1v1h-1ZM185 133h1v1h-1ZM152 134h1v1h-1ZM163 134h1v1h-1ZM168 134h1v1h-1ZM176 134h1v1h-1ZM177 134h1v1h-1ZM164 135h1v1h-1ZM165 135h1v1h-1ZM166 135h1v1h-1ZM167 135h1v1h-1ZM153 143h1v1h-1ZM161 143h1v1h-1ZM149 145h1v1h-1ZM151 145h1v1h-1ZM152 145h1v1h-1ZM149 146h1v1h-1ZM150 146h1v1h-1ZM151 146h1v1h-1ZM152 146h1v1h-1ZM158 146h1v1h-1ZM159 146h1v1h-1ZM160 146h1v1h-1ZM161 146h1v1h-1ZM149 147h1v1h-1ZM150 147h1v1h-1ZM152 147h1v1h-1ZM153 147h1v1h-1ZM157 147h1v1h-1ZM158 147h1v1h-1ZM159 147h1v1h-1ZM160 147h1v1h-1ZM161 147h1v1h-1ZM155 148h1v1h-1ZM156 148h1v1h-1ZM157 148h1v1h-1ZM161 148h1v1h-1ZM146 149h1v1h-1ZM162 149h1v1h-1ZM162 150h1v1h-1ZM162 151h1v1h-1ZM145 152h1v1h-1ZM162 152h1v1h-1ZM162 153h1v1h-1ZM146 154h1v1h-1ZM162 154h1v1h-1ZM181 154h1v1h-1ZM183 154h1v1h-1ZM164 155h1v1h-1ZM181 155h1v1h-1ZM182 155h1v1h-1ZM183 155h1v1h-1ZM146 156h1v1h-1ZM163 156h1v1h-1ZM164 156h1v1h-1ZM170 156h1v1h-1ZM171 156h1v1h-1ZM182 156h1v1h-1ZM183 156h1v1h-1ZM145 157h1v1h-1ZM163 157h1v1h-1ZM164 157h1v1h-1ZM180 157h1v1h-1ZM181 157h1v1h-1ZM184 157h1v1h-1ZM185 157h1v1h-1ZM145 158h1v1h-1ZM164 158h1v1h-1ZM165 158h1v1h-1ZM173 158h1v1h-1ZM179 158h1v1h-1ZM189 158h1v1h-1ZM190 158h1v1h-1ZM145 159h1v1h-1ZM164 159h1v1h-1ZM165 159h1v1h-1ZM167 159h1v1h-1ZM173 159h1v1h-1ZM178 159h1v1h-1ZM163 160h1v1h-1ZM164 160h1v1h-1ZM165 160h1v1h-1ZM166 160h1v1h-1ZM167 160h1v1h-1ZM173 160h1v1h-1ZM174 160h1v1h-1ZM178 160h1v1h-1ZM179 160h1v1h-1ZM146 161h1v1h-1ZM162 161h1v1h-1ZM163 161h1v1h-1ZM164 161h1v1h-1ZM165 161h1v1h-1ZM166 161h1v1h-1ZM167 161h1v1h-1ZM173 161h1v1h-1ZM177 161h1v1h-1ZM178 161h1v1h-1ZM161 162h1v1h-1ZM162 162h1v1h-1ZM163 162h1v1h-1ZM164 162h1v1h-1ZM166 162h1v1h-1ZM167 162h1v1h-1ZM172 162h1v1h-1ZM178 162h1v1h-1ZM179 162h1v1h-1ZM189 162h1v1h-1ZM148 163h1v1h-1ZM149 163h1v1h-1ZM151 163h1v1h-1ZM161 163h1v1h-1ZM165 163h1v1h-1ZM166 163h1v1h-1ZM167 163h1v1h-1ZM179 163h1v1h-1ZM180 163h1v1h-1ZM181 163h1v1h-1ZM183 163h1v1h-1ZM152 164h1v1h-1ZM161 164h1v1h-1ZM164 164h1v1h-1ZM165 164h1v1h-1ZM166 164h1v1h-1ZM173 164h1v1h-1ZM153 165h1v1h-1ZM160 165h1v1h-1ZM161 165h1v1h-1ZM164 165h1v1h-1ZM165 165h1v1h-1ZM153 166h1v1h-1ZM154 166h1v1h-1ZM163 166h1v1h-1ZM164 166h1v1h-1ZM165 166h1v1h-1ZM174 166h1v1h-1ZM153 167h1v1h-1ZM154 167h1v1h-1ZM163 167h1v1h-1ZM164 167h1v1h-1ZM162 168h1v1h-1ZM163 168h1v1h-1ZM165 168h1v1h-1ZM154 169h1v1h-1ZM161 169h1v1h-1ZM162 169h1v1h-1ZM163 169h1v1h-1ZM165 169h1v1h-1ZM174 169h1v1h-1ZM155 170h1v1h-1ZM160 170h1v1h-1ZM161 170h1v1h-1ZM166 170h1v1h-1ZM173 170h1v1h-1ZM155 171h1v1h-1ZM159 171h1v1h-1ZM160 171h1v1h-1ZM165 171h1v1h-1ZM166 171h1v1h-1ZM173 171h1v1h-1ZM160 172h1v1h-1ZM164 172h1v1h-1ZM160 173h1v1h-1ZM164 173h1v1h-1ZM155 174h1v1h-1ZM160 174h1v1h-1ZM174 174h1v1h-1ZM155 175h1v1h-1ZM174 175h1v1h-1ZM159 176h1v1h-1ZM165 176h1v1h-1ZM158 177h1v1h-1ZM166 178h1v1h-1ZM173 178h1v1h-1ZM159 180h1v1h-1ZM165 180h1v1h-1ZM173 180h1v1h-1ZM173 181h1v1h-1ZM174 181h1v1h-1ZM179 181h1v1h-1ZM173 182h1v1h-1ZM174 182h1v1h-1ZM155 183h1v1h-1ZM160 183h1v1h-1ZM154 184h1v1h-1ZM155 184h1v1h-1ZM159 184h1v1h-1ZM160 184h1v1h-1ZM161 184h1v1h-1ZM165 184h1v1h-1ZM178 184h1v1h-1ZM154 185h1v1h-1ZM155 185h1v1h-1ZM156 185h1v1h-1ZM160 185h1v1h-1ZM161 185h1v1h-1ZM162 185h1v1h-1ZM163 185h1v1h-1ZM164 185h1v1h-1ZM165 185h1v1h-1ZM173 185h1v1h-1ZM178 185h1v1h-1ZM179 185h1v1h-1ZM181 185h1v1h-1ZM153 186h1v1h-1ZM154 186h1v1h-1ZM162 186h1v1h-1ZM163 186h1v1h-1ZM164 186h1v1h-1ZM165 186h1v1h-1ZM172 186h1v1h-1ZM173 186h1v1h-1ZM178 186h1v1h-1ZM153 187h1v1h-1ZM163 187h1v1h-1ZM173 187h1v1h-1ZM177 187h1v1h-1ZM178 187h1v1h-1ZM179 187h1v1h-1ZM180 187h1v1h-1ZM173 188h1v1h-1ZM177 188h1v1h-1ZM151 189h1v1h-1ZM152 189h1v1h-1ZM173 189h1v1h-1ZM176 189h1v1h-1ZM177 189h1v1h-1ZM151 190h1v1h-1ZM152 190h1v1h-1ZM173 190h1v1h-1ZM176 190h1v1h-1ZM177 190h1v1h-1ZM151 191h1v1h-1ZM152 191h1v1h-1ZM173 191h1v1h-1ZM177 191h1v1h-1ZM151 192h1v1h-1ZM152 192h1v1h-1ZM163 192h1v1h-1ZM172 192h1v1h-1ZM178 192h1v1h-1ZM151 193h1v1h-1ZM163 193h1v1h-1ZM164 193h1v1h-1ZM172 193h1v1h-1ZM178 193h1v1h-1ZM179 193h1v1h-1ZM180 193h1v1h-1ZM162 194h1v1h-1ZM163 194h1v1h-1ZM164 194h1v1h-1ZM177 194h1v1h-1ZM178 194h1v1h-1ZM179 194h1v1h-1ZM151 195h1v1h-1ZM162 195h1v1h-1ZM163 195h1v1h-1ZM177 195h1v1h-1ZM178 195h1v1h-1ZM151 196h1v1h-1ZM163 196h1v1h-1ZM151 197h1v1h-1ZM163 197h1v1h-1ZM164 197h1v1h-1ZM171 197h1v1h-1ZM151 198h1v1h-1ZM162 198h1v1h-1ZM163 198h1v1h-1ZM164 198h1v1h-1ZM171 198h1v1h-1ZM172 198h1v1h-1ZM151 199h1v1h-1ZM172 199h1v1h-1ZM178 199h1v1h-1ZM180 199h1v1h-1ZM150 200h1v1h-1ZM172 200h1v1h-1ZM178 200h1v1h-1ZM179 200h1v1h-1ZM173 201h1v1h-1ZM178 201h1v1h-1ZM151 202h1v1h-1ZM173 202h1v1h-1ZM177 202h1v1h-1ZM152 203h1v1h-1ZM173 203h1v1h-1ZM177 203h1v1h-1ZM152 204h1v1h-1ZM175 204h1v1h-1ZM177 204h1v1h-1ZM152 205h1v1h-1ZM176 205h1v1h-1ZM177 205h1v1h-1ZM178 205h1v1h-1ZM151 206h1v1h-1ZM177 206h1v1h-1ZM178 206h1v1h-1ZM179 206h1v1h-1ZM180 206h1v1h-1ZM151 207h1v1h-1ZM178 207h1v1h-1ZM179 207h1v1h-1ZM180 207h1v1h-1ZM152 208h1v1h-1ZM153 210h1v1h-1ZM177 210h1v1h-1ZM176 211h1v1h-1ZM177 211h1v1h-1ZM154 212h1v1h-1ZM157 212h1v1h-1ZM158 212h1v1h-1ZM175 212h1v1h-1ZM177 212h1v1h-1ZM160 213h1v1h-1ZM163 213h1v1h-1ZM168 213h1v1h-1ZM169 213h1v1h-1ZM170 213h1v1h-1ZM171 213h1v1h-1ZM172 213h1v1h-1ZM173 213h1v1h-1Z"/><path fill="rgb(144,0,24)" d="M171 110h1v1h-1ZM168 111h1v1h-1ZM162 116h1v1h-1ZM161 126h1v1h-1ZM185 130h1v1h-1ZM157 133h1v1h-1ZM182 134h1v1h-1ZM190 139h1v1h-1ZM157 144h1v1h-1ZM161 144h1v1h-1ZM150 145h1v1h-1ZM145 151h1v1h-1ZM163 151h1v1h-1ZM180 152h1v1h-1ZM169 157h1v1h-1ZM177 160h1v1h-1ZM146 162h1v1h-1ZM147 162h1v1h-1ZM162 165h1v1h-1ZM165 167h1v1h-1ZM179 168h1v1h-1ZM180 170h1v1h-1ZM163 174h1v1h-1ZM160 175h1v1h-1ZM164 175h1v1h-1ZM174 176h1v1h-1ZM181 177h1v1h-1ZM181 180h1v1h-1ZM164 181h1v1h-1ZM165 181h1v1h-1ZM151 188h1v1h-1ZM152 188h1v1h-1ZM176 191h1v1h-1ZM181 194h1v1h-1ZM177 201h1v1h-1Z"/><path fill="rgb(144,24,0)" d="M151 194h1v1h-1ZM151 201h1v1h-1Z"/><path fill="rgb(144,24,24)" d="M177 113h1v1h-1ZM179 114h1v1h-1ZM187 131h1v1h-1ZM187 132h1v1h-1ZM183 134h1v1h-1ZM152 135h1v1h-1ZM149 136h1v1h-1ZM149 137h1v1h-1ZM152 138h1v1h-1ZM193 139h1v1h-1ZM191 140h1v1h-1ZM192 140h1v1h-1ZM149 141h1v1h-1ZM152 141h1v1h-1ZM191 143h1v1h-1ZM149 144h1v1h-1ZM190 146h1v1h-1ZM163 150h1v1h-1ZM182 150h1v1h-1ZM191 150h1v1h-1ZM184 152h1v1h-1ZM189 152h1v1h-1ZM163 153h1v1h-1ZM180 153h1v1h-1ZM172 157h1v1h-1ZM186 157h1v1h-1ZM144 158h1v1h-1ZM178 158h1v1h-1ZM144 159h1v1h-1ZM176 160h1v1h-1ZM192 161h1v1h-1ZM191 162h1v1h-1ZM152 167h1v1h-1ZM154 172h1v1h-1ZM161 174h1v1h-1ZM162 174h1v1h-1ZM179 174h1v1h-1ZM163 175h1v1h-1ZM179 175h1v1h-1ZM155 181h1v1h-1ZM160 182h1v1h-1ZM164 182h1v1h-1ZM183 182h1v1h-1ZM177 185h1v1h-1ZM177 186h1v1h-1ZM152 187h1v1h-1ZM150 191h1v1h-1ZM175 191h1v1h-1ZM177 192h1v1h-1ZM177 193h1v1h-1ZM181 201h1v1h-1ZM181 204h1v1h-1ZM181 208h1v1h-1ZM181 209h1v1h-1ZM180 211h1v1h-1Z"/><path fill="rgb(144,24,48)" d="M190 137h1v1h-1ZM160 141h1v1h-1ZM180 151h1v1h-1ZM183 169h1v1h-1ZM182 176h1v1h-1Z"/><path fill="rgb(144,48,0)" d="M196 87h1v1h-1ZM220 87h1v1h-1ZM197 88h1v1h-1ZM198 88h1v1h-1ZM202 88h1v1h-1ZM195 89h1v1h-1ZM196 89h1v1h-1ZM201 89h1v1h-1ZM202 89h1v1h-1ZM205 89h1v1h-1ZM206 89h1v1h-1ZM218 89h1v1h-1ZM198 90h1v1h-1ZM201 90h1v1h-1ZM205 90h1v1h-1ZM206 90h1v1h-1ZM216 90h1v1h-1ZM217 90h1v1h-1ZM201 91h1v1h-1ZM218 91h1v1h-1ZM201 92h1v1h-1ZM203 92h1v1h-1ZM218 92h1v1h-1ZM219 92h1v1h-1ZM220 92h1v1h-1ZM221 92h1v1h-1ZM222 92h1v1h-1ZM226 92h1v1h-1ZM204 93h1v1h-1ZM220 93h1v1h-1ZM221 93h1v1h-1ZM225 93h1v1h-1ZM212 94h1v1h-1ZM225 94h1v1h-1ZM226 94h1v1h-1ZM228 94h1v1h-1ZM203 95h1v1h-1ZM204 95h1v1h-1ZM210 95h1v1h-1ZM212 95h1v1h-1ZM229 95h1v1h-1ZM211 96h1v1h-1ZM212 96h1v1h-1ZM229 96h1v1h-1Z"/><path fill="rgb(144,48,24)" d="M187 157h1v1h-1Z"/><path fill="rgb(144,48,48)" d="M189 130h1v1h-1ZM190 130h1v1h-1ZM193 137h1v1h-1ZM193 138h1v1h-1ZM159 141h1v1h-1ZM181 143h1v1h-1ZM181 144h1v1h-1ZM184 144h1v1h-1ZM182 170h1v1h-1ZM182 196h1v1h-1ZM182 197h1v1h-1ZM181 210h1v1h-1Z"/><path fill="rgb(144,72,0)" d="M194 86h1v1h-1ZM194 87h1v1h-1ZM195 87h1v1h-1ZM197 87h1v1h-1ZM200 87h1v1h-1ZM204 87h1v1h-1ZM194 88h1v1h-1ZM195 88h1v1h-1ZM196 88h1v1h-1ZM199 88h1v1h-1ZM201 88h1v1h-1ZM203 88h1v1h-1ZM209 88h1v1h-1ZM210 88h1v1h-1ZM212 88h1v1h-1ZM213 88h1v1h-1ZM222 88h1v1h-1ZM223 88h1v1h-1ZM194 89h1v1h-1ZM197 89h1v1h-1ZM198 89h1v1h-1ZM199 89h1v1h-1ZM200 89h1v1h-1ZM203 89h1v1h-1ZM204 89h1v1h-1ZM207 89h1v1h-1ZM208 89h1v1h-1ZM210 89h1v1h-1ZM211 89h1v1h-1ZM212 89h1v1h-1ZM213 89h1v1h-1ZM199 90h1v1h-1ZM200 90h1v1h-1ZM202 90h1v1h-1ZM203 90h1v1h-1ZM204 90h1v1h-1ZM207 90h1v1h-1ZM208 90h1v1h-1ZM209 90h1v1h-1ZM210 90h1v1h-1ZM211 90h1v1h-1ZM212 90h1v1h-1ZM213 90h1v1h-1ZM214 90h1v1h-1ZM215 90h1v1h-1ZM218 90h1v1h-1ZM219 90h1v1h-1ZM220 90h1v1h-1ZM199 91h1v1h-1ZM200 91h1v1h-1ZM202 91h1v1h-1ZM203 91h1v1h-1ZM204 91h1v1h-1ZM205 91h1v1h-1ZM206 91h1v1h-1ZM207 91h1v1h-1ZM208 91h1v1h-1ZM209 91h1v1h-1ZM210 91h1v1h-1ZM212 91h1v1h-1ZM213 91h1v1h-1ZM214 91h1v1h-1ZM215 91h1v1h-1ZM216 91h1v1h-1ZM217 91h1v1h-1ZM219 91h1v1h-1ZM220 91h1v1h-1ZM221 91h1v1h-1ZM222 91h1v1h-1ZM223 91h1v1h-1ZM224 91h1v1h-1ZM225 91h1v1h-1ZM198 92h1v1h-1ZM199 92h1v1h-1ZM200 92h1v1h-1ZM202 92h1v1h-1ZM204 92h1v1h-1ZM205 92h1v1h-1ZM207 92h1v1h-1ZM209 92h1v1h-1ZM210 92h1v1h-1ZM211 92h1v1h-1ZM212 92h1v1h-1ZM213 92h1v1h-1ZM214 92h1v1h-1ZM215 92h1v1h-1ZM216 92h1v1h-1ZM217 92h1v1h-1ZM223 92h1v1h-1ZM224 92h1v1h-1ZM225 92h1v1h-1ZM227 92h1v1h-1ZM200 93h1v1h-1ZM202 93h1v1h-1ZM203 93h1v1h-1ZM209 93h1v1h-1ZM210 93h1v1h-1ZM211 93h1v1h-1ZM212 93h1v1h-1ZM213 93h1v1h-1ZM214 93h1v1h-1ZM215 93h1v1h-1ZM216 93h1v1h-1ZM219 93h1v1h-1ZM222 93h1v1h-1ZM223 93h1v1h-1ZM224 93h1v1h-1ZM226 93h1v1h-1ZM227 93h1v1h-1ZM200 94h1v1h-1ZM201 94h1v1h-1ZM202 94h1v1h-1ZM203 94h1v1h-1ZM204 94h1v1h-1ZM205 94h1v1h-1ZM206 94h1v1h-1ZM207 94h1v1h-1ZM208 94h1v1h-1ZM209 94h1v1h-1ZM210 94h1v1h-1ZM211 94h1v1h-1ZM213 94h1v1h-1ZM214 94h1v1h-1ZM227 94h1v1h-1ZM229 94h1v1h-1ZM200 95h1v1h-1ZM202 95h1v1h-1ZM205 95h1v1h-1ZM207 95h1v1h-1ZM208 95h1v1h-1ZM209 95h1v1h-1ZM211 95h1v1h-1ZM213 95h1v1h-1ZM214 95h1v1h-1ZM226 95h1v1h-1ZM227 95h1v1h-1ZM228 95h1v1h-1ZM203 96h1v1h-1ZM210 96h1v1h-1ZM213 96h1v1h-1ZM214 96h1v1h-1ZM215 96h1v1h-1ZM225 96h1v1h-1ZM228 96h1v1h-1ZM230 96h1v1h-1ZM205 97h1v1h-1ZM210 97h1v1h-1ZM211 97h1v1h-1ZM229 97h1v1h-1ZM230 97h1v1h-1ZM231 97h1v1h-1ZM204 98h1v1h-1ZM205 98h1v1h-1ZM230 98h1v1h-1ZM231 98h1v1h-1ZM232 98h1v1h-1ZM233 98h1v1h-1ZM205 99h1v1h-1ZM206 99h1v1h-1ZM208 99h1v1h-1ZM230 99h1v1h-1ZM231 99h1v1h-1ZM232 99h1v1h-1ZM233 99h1v1h-1ZM235 99h1v1h-1ZM208 100h1v1h-1ZM231 100h1v1h-1ZM232 100h1v1h-1ZM232 101h1v1h-1ZM233 101h1v1h-1ZM234 101h1v1h-1ZM231 102h1v1h-1ZM232 102h1v1h-1ZM233 102h1v1h-1ZM216 103h1v1h-1ZM217 103h1v1h-1ZM219 103h1v1h-1ZM232 103h1v1h-1ZM233 103h1v1h-1ZM234 103h1v1h-1ZM216 104h1v1h-1ZM217 104h1v1h-1ZM232 104h1v1h-1ZM233 104h1v1h-1ZM234 104h1v1h-1ZM216 105h1v1h-1ZM232 105h1v1h-1ZM233 105h1v1h-1ZM234 105h1v1h-1ZM217 106h1v1h-1ZM233 106h1v1h-1ZM234 106h1v1h-1ZM235 106h1v1h-1ZM235 107h1v1h-1ZM226 109h1v1h-1ZM236 109h1v1h-1ZM236 110h1v1h-1ZM223 111h1v1h-1ZM227 111h1v1h-1ZM228 111h1v1h-1ZM233 112h1v1h-1ZM234 112h1v1h-1ZM234 135h1v1h-1ZM226 254h1v1h-1Z"/><path fill="rgb(144,72,24)" d="M256 134h1v1h-1ZM256 135h1v1h-1ZM257 135h1v1h-1ZM255 136h1v1h-1ZM256 136h1v1h-1ZM257 136h1v1h-1ZM255 137h1v1h-1ZM256 137h1v1h-1ZM257 137h1v1h-1ZM257 139h1v1h-1ZM256 145h1v1h-1ZM257 145h1v1h-1ZM256 146h1v1h-1ZM257 146h1v1h-1Z"/><path fill="rgb(144,72,48)" d="M257 133h1v1h-1Z"/><path fill="rgb(144,96,24)" d="M256 139h1v1h-1ZM256 140h1v1h-1Z"/><path fill="rgb(144,96,48)" d="M256 133h1v1h-1ZM256 138h1v1h-1ZM257 138h1v1h-1Z"/><path fill="rgb(144,96,72)" d="M260 105h1v1h-1ZM244 209h1v1h-1ZM219 245h1v1h-1Z"/><path fill="rgb(144,96,96)" d="M173 109h1v1h-1Z"/><path fill="rgb(168,0,0)" d="M170 111h1v1h-1ZM171 111h1v1h-1ZM167 112h1v1h-1ZM164 114h1v1h-1ZM163 117h1v1h-1ZM162 118h1v1h-1ZM163 118h1v1h-1ZM162 119h1v1h-1ZM163 119h1v1h-1ZM174 119h1v1h-1ZM175 119h1v1h-1ZM162 120h1v1h-1ZM163 120h1v1h-1ZM173 120h1v1h-1ZM174 120h1v1h-1ZM175 120h1v1h-1ZM171 121h1v1h-1ZM174 121h1v1h-1ZM175 121h1v1h-1ZM163 122h1v1h-1ZM172 122h1v1h-1ZM173 122h1v1h-1ZM174 122h1v1h-1ZM163 123h1v1h-1ZM173 123h1v1h-1ZM174 123h1v1h-1ZM164 124h1v1h-1ZM179 124h1v1h-1ZM164 125h1v1h-1ZM175 126h1v1h-1ZM162 127h1v1h-1ZM163 127h1v1h-1ZM174 127h1v1h-1ZM161 128h1v1h-1ZM162 128h1v1h-1ZM163 128h1v1h-1ZM171 128h1v1h-1ZM172 128h1v1h-1ZM157 129h1v1h-1ZM173 129h1v1h-1ZM174 131h1v1h-1ZM175 131h1v1h-1ZM180 131h1v1h-1ZM156 132h1v1h-1ZM157 132h1v1h-1ZM174 132h1v1h-1ZM175 132h1v1h-1ZM180 132h1v1h-1ZM181 132h1v1h-1ZM153 133h1v1h-1ZM161 133h1v1h-1ZM162 133h1v1h-1ZM168 133h1v1h-1ZM169 133h1v1h-1ZM170 133h1v1h-1ZM171 133h1v1h-1ZM172 133h1v1h-1ZM175 133h1v1h-1ZM179 133h1v1h-1ZM165 134h1v1h-1ZM152 143h1v1h-1ZM160 145h1v1h-1ZM153 148h1v1h-1ZM154 148h1v1h-1ZM158 148h1v1h-1ZM155 149h1v1h-1ZM156 149h1v1h-1ZM146 150h1v1h-1ZM146 151h1v1h-1ZM146 152h1v1h-1ZM146 153h1v1h-1ZM161 153h1v1h-1ZM154 154h1v1h-1ZM161 154h1v1h-1ZM146 155h1v1h-1ZM162 155h1v1h-1ZM147 156h1v1h-1ZM146 157h1v1h-1ZM162 157h1v1h-1ZM146 158h1v1h-1ZM162 158h1v1h-1ZM163 158h1v1h-1ZM162 159h1v1h-1ZM146 160h1v1h-1ZM162 160h1v1h-1ZM160 161h1v1h-1ZM161 161h1v1h-1ZM168 161h1v1h-1ZM172 161h1v1h-1ZM179 161h1v1h-1ZM189 161h1v1h-1ZM149 162h1v1h-1ZM150 162h1v1h-1ZM159 162h1v1h-1ZM160 162h1v1h-1ZM168 162h1v1h-1ZM171 162h1v1h-1ZM183 162h1v1h-1ZM152 163h1v1h-1ZM153 163h1v1h-1ZM154 163h1v1h-1ZM155 163h1v1h-1ZM156 163h1v1h-1ZM158 163h1v1h-1ZM159 163h1v1h-1ZM160 163h1v1h-1ZM168 163h1v1h-1ZM169 163h1v1h-1ZM171 163h1v1h-1ZM172 163h1v1h-1ZM182 163h1v1h-1ZM184 163h1v1h-1ZM185 163h1v1h-1ZM153 164h1v1h-1ZM154 164h1v1h-1ZM155 164h1v1h-1ZM156 164h1v1h-1ZM157 164h1v1h-1ZM158 164h1v1h-1ZM159 164h1v1h-1ZM160 164h1v1h-1ZM167 164h1v1h-1ZM168 164h1v1h-1ZM170 164h1v1h-1ZM154 165h1v1h-1ZM155 165h1v1h-1ZM156 165h1v1h-1ZM157 165h1v1h-1ZM166 165h1v1h-1ZM167 165h1v1h-1ZM155 166h1v1h-1ZM161 166h1v1h-1ZM166 166h1v1h-1ZM161 167h1v1h-1ZM166 167h1v1h-1ZM161 168h1v1h-1ZM174 168h1v1h-1ZM155 169h1v1h-1ZM166 169h1v1h-1ZM173 169h1v1h-1ZM159 170h1v1h-1ZM167 170h1v1h-1ZM171 170h1v1h-1ZM172 170h1v1h-1ZM156 171h1v1h-1ZM158 171h1v1h-1ZM167 171h1v1h-1ZM156 172h1v1h-1ZM166 172h1v1h-1ZM167 172h1v1h-1ZM173 172h1v1h-1ZM173 173h1v1h-1ZM173 176h1v1h-1ZM166 177h1v1h-1ZM173 177h1v1h-1ZM172 178h1v1h-1ZM166 179h1v1h-1ZM167 179h1v1h-1ZM172 179h1v1h-1ZM166 180h1v1h-1ZM167 180h1v1h-1ZM172 180h1v1h-1ZM156 183h1v1h-1ZM158 183h1v1h-1ZM159 183h1v1h-1ZM165 183h1v1h-1ZM172 183h1v1h-1ZM173 183h1v1h-1ZM156 184h1v1h-1ZM157 184h1v1h-1ZM158 184h1v1h-1ZM173 184h1v1h-1ZM159 185h1v1h-1ZM172 185h1v1h-1ZM180 185h1v1h-1ZM159 186h1v1h-1ZM160 186h1v1h-1ZM161 186h1v1h-1ZM166 186h1v1h-1ZM160 187h1v1h-1ZM161 187h1v1h-1ZM162 187h1v1h-1ZM164 187h1v1h-1ZM165 187h1v1h-1ZM172 187h1v1h-1ZM153 188h1v1h-1ZM163 188h1v1h-1ZM164 188h1v1h-1ZM153 189h1v1h-1ZM162 189h1v1h-1ZM163 189h1v1h-1ZM153 190h1v1h-1ZM162 190h1v1h-1ZM163 190h1v1h-1ZM164 190h1v1h-1ZM165 190h1v1h-1ZM162 191h1v1h-1ZM163 191h1v1h-1ZM164 191h1v1h-1ZM165 191h1v1h-1ZM171 191h1v1h-1ZM172 191h1v1h-1ZM162 192h1v1h-1ZM164 192h1v1h-1ZM165 192h1v1h-1ZM171 192h1v1h-1ZM152 193h1v1h-1ZM161 193h1v1h-1ZM162 193h1v1h-1ZM165 193h1v1h-1ZM166 193h1v1h-1ZM171 193h1v1h-1ZM152 194h1v1h-1ZM165 194h1v1h-1ZM171 194h1v1h-1ZM180 194h1v1h-1ZM152 195h1v1h-1ZM164 195h1v1h-1ZM152 196h1v1h-1ZM161 196h1v1h-1ZM162 196h1v1h-1ZM164 196h1v1h-1ZM165 196h1v1h-1ZM152 197h1v1h-1ZM162 197h1v1h-1ZM165 197h1v1h-1ZM152 198h1v1h-1ZM161 198h1v1h-1ZM165 198h1v1h-1ZM152 199h1v1h-1ZM161 199h1v1h-1ZM162 199h1v1h-1ZM163 199h1v1h-1ZM164 199h1v1h-1ZM165 199h1v1h-1ZM171 199h1v1h-1ZM179 199h1v1h-1ZM151 200h1v1h-1ZM152 200h1v1h-1ZM161 200h1v1h-1ZM162 200h1v1h-1ZM163 200h1v1h-1ZM165 200h1v1h-1ZM171 200h1v1h-1ZM180 200h1v1h-1ZM152 201h1v1h-1ZM152 202h1v1h-1ZM153 203h1v1h-1ZM172 203h1v1h-1ZM153 204h1v1h-1ZM159 204h1v1h-1ZM173 204h1v1h-1ZM174 204h1v1h-1ZM174 205h1v1h-1ZM175 205h1v1h-1ZM152 206h1v1h-1ZM175 206h1v1h-1ZM176 206h1v1h-1ZM152 207h1v1h-1ZM176 207h1v1h-1ZM177 207h1v1h-1ZM177 208h1v1h-1ZM178 208h1v1h-1ZM177 209h1v1h-1ZM155 212h1v1h-1ZM156 212h1v1h-1ZM159 212h1v1h-1ZM169 212h1v1h-1ZM161 213h1v1h-1ZM164 213h1v1h-1ZM165 213h1v1h-1ZM166 213h1v1h-1ZM167 213h1v1h-1Z"/><path fill="rgb(168,0,24)" d="M179 115h1v1h-1ZM176 126h1v1h-1ZM182 130h1v1h-1ZM181 131h1v1h-1ZM160 133h1v1h-1ZM164 134h1v1h-1ZM167 134h1v1h-1ZM158 145h1v1h-1ZM183 153h1v1h-1ZM182 154h1v1h-1ZM162 156h1v1h-1ZM163 159h1v1h-1ZM147 161h1v1h-1ZM188 162h1v1h-1ZM186 163h1v1h-1ZM174 167h1v1h-1ZM154 168h1v1h-1ZM180 168h1v1h-1ZM165 172h1v1h-1ZM165 173h1v1h-1ZM164 174h1v1h-1ZM165 175h1v1h-1ZM156 176h1v1h-1ZM159 182h1v1h-1ZM178 183h1v1h-1ZM172 189h1v1h-1ZM171 195h1v1h-1ZM171 196h1v1h-1ZM172 201h1v1h-1ZM172 202h1v1h-1ZM180 205h1v1h-1ZM153 209h1v1h-1ZM154 211h1v1h-1ZM162 213h1v1h-1Z"/><path fill="rgb(168,24,0)" d="M157 149h1v1h-1ZM180 158h1v1h-1ZM172 181h1v1h-1ZM157 185h1v1h-1ZM162 188h1v1h-1Z"/><path fill="rgb(168,24,24)" d="M176 114h1v1h-1ZM180 117h1v1h-1ZM153 128h1v1h-1ZM159 128h1v1h-1ZM176 130h1v1h-1ZM152 131h1v1h-1ZM152 137h1v1h-1ZM149 142h1v1h-1ZM149 143h1v1h-1ZM152 144h1v1h-1ZM190 144h1v1h-1ZM151 147h1v1h-1ZM148 148h1v1h-1ZM147 149h1v1h-1ZM161 149h1v1h-1ZM163 152h1v1h-1ZM182 157h1v1h-1ZM183 157h1v1h-1ZM188 158h1v1h-1ZM179 159h1v1h-1ZM148 162h1v1h-1ZM180 162h1v1h-1ZM190 162h1v1h-1ZM173 165h1v1h-1ZM162 166h1v1h-1ZM160 169h1v1h-1ZM155 172h1v1h-1ZM155 173h1v1h-1ZM156 180h1v1h-1ZM159 181h1v1h-1ZM165 182h1v1h-1ZM178 182h1v1h-1ZM179 184h1v1h-1ZM155 186h1v1h-1ZM172 188h1v1h-1ZM178 188h1v1h-1ZM172 190h1v1h-1ZM182 191h1v1h-1ZM179 192h1v1h-1ZM181 192h1v1h-1ZM178 196h1v1h-1ZM178 197h1v1h-1ZM178 198h1v1h-1ZM179 198h1v1h-1ZM179 201h1v1h-1ZM178 204h1v1h-1ZM179 205h1v1h-1ZM178 211h1v1h-1Z"/><path fill="rgb(168,24,48)" d="M172 111h1v1h-1ZM185 131h1v1h-1ZM190 145h1v1h-1ZM192 160h1v1h-1ZM183 168h1v1h-1ZM180 169h1v1h-1ZM180 174h1v1h-1ZM159 175h1v1h-1ZM180 176h1v1h-1ZM182 184h1v1h-1ZM179 211h1v1h-1Z"/><path fill="rgb(168,48,0)" d="M217 89h1v1h-1ZM219 89h1v1h-1Z"/><path fill="rgb(168,48,48)" d="M175 112h1v1h-1ZM150 135h1v1h-1ZM150 138h1v1h-1ZM151 138h1v1h-1ZM157 143h1v1h-1ZM192 143h1v1h-1ZM182 145h1v1h-1ZM183 145h1v1h-1ZM192 153h1v1h-1ZM191 158h1v1h-1ZM192 159h1v1h-1ZM181 170h1v1h-1ZM182 189h1v1h-1ZM181 198h1v1h-1Z"/><path fill="rgb(168,48,72)" d="M182 181h1v1h-1Z"/><path fill="rgb(168,72,0)" d="M200 86h1v1h-1ZM203 86h1v1h-1ZM204 86h1v1h-1ZM208 86h1v1h-1ZM209 86h1v1h-1ZM198 87h1v1h-1ZM199 87h1v1h-1ZM201 87h1v1h-1ZM202 87h1v1h-1ZM203 87h1v1h-1ZM205 87h1v1h-1ZM206 87h1v1h-1ZM207 87h1v1h-1ZM208 87h1v1h-1ZM209 87h1v1h-1ZM210 87h1v1h-1ZM211 87h1v1h-1ZM212 87h1v1h-1ZM213 87h1v1h-1ZM215 87h1v1h-1ZM216 87h1v1h-1ZM217 87h1v1h-1ZM218 87h1v1h-1ZM219 87h1v1h-1ZM200 88h1v1h-1ZM204 88h1v1h-1ZM205 88h1v1h-1ZM206 88h1v1h-1ZM207 88h1v1h-1ZM208 88h1v1h-1ZM211 88h1v1h-1ZM214 88h1v1h-1ZM215 88h1v1h-1ZM216 88h1v1h-1ZM217 88h1v1h-1ZM218 88h1v1h-1ZM219 88h1v1h-1ZM220 88h1v1h-1ZM221 88h1v1h-1ZM209 89h1v1h-1ZM214 89h1v1h-1ZM216 89h1v1h-1ZM220 89h1v1h-1ZM221 89h1v1h-1ZM221 90h1v1h-1ZM222 90h1v1h-1ZM226 91h1v1h-1ZM227 91h1v1h-1ZM228 93h1v1h-1ZM230 94h1v1h-1ZM231 94h1v1h-1ZM230 95h1v1h-1ZM231 95h1v1h-1ZM232 95h1v1h-1ZM231 96h1v1h-1Z"/><path fill="rgb(168,72,24)" d="M215 89h1v1h-1Z"/><path fill="rgb(168,72,72)" d="M182 143h1v1h-1Z"/><path fill="rgb(168,96,0)" d="M206 86h1v1h-1Z"/><path fill="rgb(168,144,96)" d="M260 104h1v1h-1Z"/><path fill="rgb(192,0,0)" d="M165 114h1v1h-1ZM165 115h1v1h-1ZM164 116h1v1h-1ZM165 116h1v1h-1ZM166 116h1v1h-1ZM164 117h1v1h-1ZM165 117h1v1h-1ZM164 118h1v1h-1ZM170 118h1v1h-1ZM172 118h1v1h-1ZM173 118h1v1h-1ZM174 118h1v1h-1ZM175 118h1v1h-1ZM170 119h1v1h-1ZM171 119h1v1h-1ZM172 119h1v1h-1ZM173 119h1v1h-1ZM164 120h1v1h-1ZM170 120h1v1h-1ZM171 120h1v1h-1ZM172 120h1v1h-1ZM163 121h1v1h-1ZM172 121h1v1h-1ZM176 121h1v1h-1ZM164 122h1v1h-1ZM165 122h1v1h-1ZM164 123h1v1h-1ZM172 123h1v1h-1ZM179 123h1v1h-1ZM165 124h1v1h-1ZM174 124h1v1h-1ZM165 125h1v1h-1ZM166 125h1v1h-1ZM174 125h1v1h-1ZM175 125h1v1h-1ZM165 126h1v1h-1ZM166 126h1v1h-1ZM169 126h1v1h-1ZM174 126h1v1h-1ZM164 127h1v1h-1ZM165 127h1v1h-1ZM166 127h1v1h-1ZM167 127h1v1h-1ZM172 127h1v1h-1ZM173 127h1v1h-1ZM164 128h1v1h-1ZM165 128h1v1h-1ZM168 128h1v1h-1ZM170 128h1v1h-1ZM162 129h1v1h-1ZM163 129h1v1h-1ZM169 129h1v1h-1ZM170 129h1v1h-1ZM171 129h1v1h-1ZM157 130h1v1h-1ZM169 130h1v1h-1ZM157 131h1v1h-1ZM162 131h1v1h-1ZM163 131h1v1h-1ZM158 132h1v1h-1ZM162 132h1v1h-1ZM163 132h1v1h-1ZM169 132h1v1h-1ZM170 132h1v1h-1ZM163 133h1v1h-1ZM153 149h1v1h-1ZM154 149h1v1h-1ZM154 150h1v1h-1ZM155 150h1v1h-1ZM154 151h1v1h-1ZM155 151h1v1h-1ZM154 152h1v1h-1ZM155 152h1v1h-1ZM147 153h1v1h-1ZM153 153h1v1h-1ZM154 153h1v1h-1ZM147 154h1v1h-1ZM151 154h1v1h-1ZM152 154h1v1h-1ZM153 154h1v1h-1ZM155 154h1v1h-1ZM160 154h1v1h-1ZM147 155h1v1h-1ZM148 155h1v1h-1ZM150 155h1v1h-1ZM152 155h1v1h-1ZM153 155h1v1h-1ZM154 155h1v1h-1ZM155 155h1v1h-1ZM159 155h1v1h-1ZM160 155h1v1h-1ZM161 155h1v1h-1ZM157 156h1v1h-1ZM161 156h1v1h-1ZM161 157h1v1h-1ZM184 158h1v1h-1ZM189 159h1v1h-1ZM151 162h1v1h-1ZM154 162h1v1h-1ZM155 162h1v1h-1ZM156 162h1v1h-1ZM170 162h1v1h-1ZM184 162h1v1h-1ZM157 163h1v1h-1ZM170 163h1v1h-1ZM169 164h1v1h-1ZM166 168h1v1h-1ZM167 168h1v1h-1ZM173 168h1v1h-1ZM167 169h1v1h-1ZM172 169h1v1h-1ZM157 171h1v1h-1ZM168 171h1v1h-1ZM169 171h1v1h-1ZM170 171h1v1h-1ZM172 171h1v1h-1ZM157 172h1v1h-1ZM158 172h1v1h-1ZM168 172h1v1h-1ZM169 172h1v1h-1ZM172 172h1v1h-1ZM166 173h1v1h-1ZM167 173h1v1h-1ZM172 173h1v1h-1ZM173 174h1v1h-1ZM173 175h1v1h-1ZM166 176h1v1h-1ZM167 177h1v1h-1ZM172 177h1v1h-1ZM167 178h1v1h-1ZM170 178h1v1h-1ZM171 178h1v1h-1ZM168 179h1v1h-1ZM171 179h1v1h-1ZM166 184h1v1h-1ZM167 184h1v1h-1ZM171 184h1v1h-1ZM172 184h1v1h-1ZM166 185h1v1h-1ZM167 185h1v1h-1ZM171 185h1v1h-1ZM167 186h1v1h-1ZM170 186h1v1h-1ZM171 186h1v1h-1ZM166 187h1v1h-1ZM171 187h1v1h-1ZM161 188h1v1h-1ZM165 188h1v1h-1ZM161 189h1v1h-1ZM164 189h1v1h-1ZM165 189h1v1h-1ZM154 190h1v1h-1ZM161 190h1v1h-1ZM153 191h1v1h-1ZM155 191h1v1h-1ZM159 191h1v1h-1ZM160 191h1v1h-1ZM161 191h1v1h-1ZM166 191h1v1h-1ZM153 192h1v1h-1ZM159 192h1v1h-1ZM160 192h1v1h-1ZM161 192h1v1h-1ZM166 192h1v1h-1ZM170 192h1v1h-1ZM153 193h1v1h-1ZM159 193h1v1h-1ZM160 193h1v1h-1ZM167 193h1v1h-1ZM170 193h1v1h-1ZM153 194h1v1h-1ZM160 194h1v1h-1ZM161 194h1v1h-1ZM166 194h1v1h-1ZM161 195h1v1h-1ZM165 195h1v1h-1ZM153 196h1v1h-1ZM160 196h1v1h-1ZM153 197h1v1h-1ZM160 197h1v1h-1ZM153 198h1v1h-1ZM154 198h1v1h-1ZM159 198h1v1h-1ZM166 198h1v1h-1ZM170 198h1v1h-1ZM153 199h1v1h-1ZM154 199h1v1h-1ZM155 199h1v1h-1ZM158 199h1v1h-1ZM159 199h1v1h-1ZM160 199h1v1h-1ZM166 199h1v1h-1ZM160 200h1v1h-1ZM164 200h1v1h-1ZM160 201h1v1h-1ZM161 201h1v1h-1ZM162 201h1v1h-1ZM163 201h1v1h-1ZM164 201h1v1h-1ZM165 201h1v1h-1ZM153 202h1v1h-1ZM160 202h1v1h-1ZM161 202h1v1h-1ZM162 202h1v1h-1ZM163 202h1v1h-1ZM164 202h1v1h-1ZM160 203h1v1h-1ZM161 203h1v1h-1ZM162 203h1v1h-1ZM163 203h1v1h-1ZM160 204h1v1h-1ZM161 204h1v1h-1ZM162 204h1v1h-1ZM163 204h1v1h-1ZM164 204h1v1h-1ZM171 204h1v1h-1ZM172 204h1v1h-1ZM153 205h1v1h-1ZM158 205h1v1h-1ZM159 205h1v1h-1ZM160 205h1v1h-1ZM161 205h1v1h-1ZM162 205h1v1h-1ZM163 205h1v1h-1ZM172 205h1v1h-1ZM173 205h1v1h-1ZM153 206h1v1h-1ZM172 206h1v1h-1ZM173 206h1v1h-1ZM174 206h1v1h-1ZM153 207h1v1h-1ZM172 207h1v1h-1ZM165 210h1v1h-1ZM171 210h1v1h-1ZM158 211h1v1h-1ZM159 211h1v1h-1ZM164 211h1v1h-1ZM165 211h1v1h-1ZM170 211h1v1h-1ZM171 211h1v1h-1ZM164 212h1v1h-1Z"/><path fill="rgb(192,0,24)" d="M170 112h1v1h-1ZM164 115h1v1h-1ZM179 116h1v1h-1ZM175 122h1v1h-1ZM178 125h1v1h-1ZM164 126h1v1h-1ZM158 130h1v1h-1ZM158 131h1v1h-1ZM169 131h1v1h-1ZM161 132h1v1h-1ZM173 132h1v1h-1ZM176 133h1v1h-1ZM182 133h1v1h-1ZM147 151h1v1h-1ZM168 158h1v1h-1ZM185 158h1v1h-1ZM189 160h1v1h-1ZM157 162h1v1h-1ZM169 162h1v1h-1ZM168 170h1v1h-1ZM159 172h1v1h-1ZM165 174h1v1h-1ZM166 183h1v1h-1ZM168 186h1v1h-1ZM169 186h1v1h-1ZM178 191h1v1h-1ZM167 192h1v1h-1ZM161 197h1v1h-1ZM160 198h1v1h-1ZM170 199h1v1h-1ZM159 200h1v1h-1ZM160 212h1v1h-1ZM162 212h1v1h-1ZM171 212h1v1h-1ZM172 212h1v1h-1Z"/><path fill="rgb(192,24,0)" d="M169 118h1v1h-1ZM176 118h1v1h-1ZM173 121h1v1h-1ZM158 129h1v1h-1ZM154 156h1v1h-1ZM156 161h1v1h-1ZM167 187h1v1h-1ZM157 198h1v1h-1ZM156 199h1v1h-1ZM166 200h1v1h-1ZM166 212h1v1h-1Z"/><path fill="rgb(192,24,24)" d="M166 113h1v1h-1ZM171 122h1v1h-1ZM179 122h1v1h-1ZM166 128h1v1h-1ZM167 128h1v1h-1ZM164 129h1v1h-1ZM172 129h1v1h-1ZM156 131h1v1h-1ZM155 132h1v1h-1ZM185 132h1v1h-1ZM178 133h1v1h-1ZM166 134h1v1h-1ZM160 144h1v1h-1ZM152 148h1v1h-1ZM147 150h1v1h-1ZM148 156h1v1h-1ZM147 157h1v1h-1ZM146 159h1v1h-1ZM147 160h1v1h-1ZM161 160h1v1h-1ZM168 160h1v1h-1ZM148 161h1v1h-1ZM158 162h1v1h-1ZM187 162h1v1h-1ZM171 164h1v1h-1ZM172 164h1v1h-1ZM159 165h1v1h-1ZM168 165h1v1h-1ZM156 166h1v1h-1ZM160 166h1v1h-1ZM167 166h1v1h-1ZM173 166h1v1h-1ZM155 167h1v1h-1ZM162 167h1v1h-1ZM167 167h1v1h-1ZM173 167h1v1h-1ZM155 168h1v1h-1ZM156 169h1v1h-1ZM156 170h1v1h-1ZM157 170h1v1h-1ZM171 171h1v1h-1ZM156 173h1v1h-1ZM156 174h1v1h-1ZM158 176h1v1h-1ZM172 176h1v1h-1ZM166 181h1v1h-1ZM172 182h1v1h-1ZM157 183h1v1h-1ZM158 185h1v1h-1ZM154 187h1v1h-1ZM160 188h1v1h-1ZM160 189h1v1h-1ZM178 189h1v1h-1ZM178 190h1v1h-1ZM170 194h1v1h-1ZM153 195h1v1h-1ZM179 195h1v1h-1ZM154 196h1v1h-1ZM154 197h1v1h-1ZM159 197h1v1h-1ZM166 197h1v1h-1ZM170 197h1v1h-1ZM158 198h1v1h-1ZM153 200h1v1h-1ZM167 200h1v1h-1ZM170 200h1v1h-1ZM153 201h1v1h-1ZM178 202h1v1h-1ZM159 203h1v1h-1ZM175 207h1v1h-1ZM153 208h1v1h-1ZM176 208h1v1h-1ZM178 209h1v1h-1ZM176 210h1v1h-1ZM157 211h1v1h-1ZM163 212h1v1h-1ZM170 212h1v1h-1Z"/><path fill="rgb(192,24,48)" d="M169 111h1v1h-1ZM178 115h1v1h-1ZM176 131h1v1h-1ZM177 133h1v1h-1ZM188 133h1v1h-1ZM152 142h1v1h-1ZM150 144h1v1h-1ZM151 144h1v1h-1ZM159 145h1v1h-1ZM160 148h1v1h-1ZM181 153h1v1h-1ZM156 175h1v1h-1ZM157 176h1v1h-1ZM156 182h1v1h-1ZM180 192h1v1h-1ZM179 208h1v1h-1ZM154 210h1v1h-1ZM178 210h1v1h-1Z"/><path fill="rgb(192,48,24)" d="M171 115h1v1h-1ZM160 153h1v1h-1ZM179 188h1v1h-1Z"/><path fill="rgb(192,48,48)" d="M152 129h1v1h-1ZM177 129h1v1h-1ZM178 129h1v1h-1ZM179 130h1v1h-1ZM188 132h1v1h-1ZM152 136h1v1h-1ZM150 141h1v1h-1ZM149 148h1v1h-1ZM159 148h1v1h-1ZM161 150h1v1h-1ZM181 151h1v1h-1ZM181 152h1v1h-1ZM161 159h1v1h-1ZM158 170h1v1h-1ZM157 180h1v1h-1ZM168 180h1v1h-1ZM179 182h1v1h-1ZM179 183h1v1h-1ZM156 186h1v1h-1ZM171 188h1v1h-1ZM182 190h1v1h-1ZM171 201h1v1h-1ZM180 201h1v1h-1Z"/><path fill="rgb(192,48,72)" d="M188 131h1v1h-1ZM190 138h1v1h-1ZM191 139h1v1h-1ZM191 146h1v1h-1ZM192 146h1v1h-1ZM171 157h1v1h-1ZM181 167h1v1h-1ZM181 169h1v1h-1ZM180 181h1v1h-1ZM180 210h1v1h-1Z"/><path fill="rgb(192,72,48)" d="M171 114h1v1h-1ZM180 121h1v1h-1Z"/><path fill="rgb(192,72,72)" d="M178 114h1v1h-1ZM152 130h1v1h-1ZM190 133h1v1h-1ZM151 135h1v1h-1ZM191 137h1v1h-1ZM158 142h1v1h-1ZM192 151h1v1h-1ZM192 152h1v1h-1ZM182 174h1v1h-1ZM182 175h1v1h-1ZM181 176h1v1h-1ZM181 188h1v1h-1ZM181 203h1v1h-1Z"/><path fill="rgb(192,96,24)" d="M214 87h1v1h-1Z"/><path fill="rgb(192,96,96)" d="M174 111h1v1h-1Z"/><path fill="rgb(216,0,0)" d="M174 116h1v1h-1ZM173 117h1v1h-1ZM174 117h1v1h-1ZM175 117h1v1h-1ZM176 117h1v1h-1ZM177 117h1v1h-1ZM171 118h1v1h-1ZM169 119h1v1h-1ZM169 120h1v1h-1ZM164 121h1v1h-1ZM170 126h1v1h-1ZM168 127h1v1h-1ZM169 127h1v1h-1ZM170 127h1v1h-1ZM171 127h1v1h-1ZM169 128h1v1h-1ZM162 130h1v1h-1ZM170 130h1v1h-1ZM153 152h1v1h-1ZM152 153h1v1h-1ZM156 153h1v1h-1ZM157 153h1v1h-1ZM148 154h1v1h-1ZM149 154h1v1h-1ZM156 154h1v1h-1ZM157 154h1v1h-1ZM149 155h1v1h-1ZM156 155h1v1h-1ZM157 155h1v1h-1ZM158 155h1v1h-1ZM153 156h1v1h-1ZM151 161h1v1h-1ZM152 161h1v1h-1ZM184 161h1v1h-1ZM153 162h1v1h-1ZM169 179h1v1h-1ZM170 179h1v1h-1ZM170 185h1v1h-1ZM154 191h1v1h-1ZM154 192h1v1h-1ZM155 192h1v1h-1ZM167 199h1v1h-1ZM168 199h1v1h-1ZM169 199h1v1h-1ZM164 203h1v1h-1ZM154 204h1v1h-1ZM165 204h1v1h-1ZM154 205h1v1h-1ZM155 205h1v1h-1ZM164 205h1v1h-1ZM165 205h1v1h-1ZM166 205h1v1h-1ZM170 205h1v1h-1ZM171 205h1v1h-1ZM154 206h1v1h-1ZM155 206h1v1h-1ZM158 206h1v1h-1ZM159 206h1v1h-1ZM160 206h1v1h-1ZM161 206h1v1h-1ZM164 206h1v1h-1ZM165 206h1v1h-1ZM166 206h1v1h-1ZM167 206h1v1h-1ZM169 206h1v1h-1ZM170 206h1v1h-1ZM171 206h1v1h-1ZM166 207h1v1h-1ZM170 207h1v1h-1ZM171 207h1v1h-1ZM159 208h1v1h-1ZM159 210h1v1h-1ZM165 212h1v1h-1Z"/><path fill="rgb(216,0,24)" d="M175 116h1v1h-1ZM171 117h1v1h-1ZM165 121h1v1h-1ZM178 123h1v1h-1ZM173 126h1v1h-1ZM148 153h1v1h-1ZM166 174h1v1h-1ZM166 175h1v1h-1ZM168 185h1v1h-1ZM169 185h1v1h-1ZM154 193h1v1h-1ZM168 193h1v1h-1ZM169 193h1v1h-1ZM167 194h1v1h-1ZM169 198h1v1h-1ZM164 207h1v1h-1ZM165 208h1v1h-1ZM171 208h1v1h-1ZM159 209h1v1h-1ZM160 211h1v1h-1Z"/><path fill="rgb(216,24,0)" d="M167 126h1v1h-1ZM155 153h1v1h-1ZM156 156h1v1h-1ZM153 157h1v1h-1ZM156 192h1v1h-1ZM157 192h1v1h-1ZM158 192h1v1h-1ZM155 198h1v1h-1ZM156 205h1v1h-1ZM157 205h1v1h-1ZM168 206h1v1h-1Z"/><path fill="rgb(216,24,24)" d="M175 115h1v1h-1ZM173 116h1v1h-1ZM178 116h1v1h-1ZM170 117h1v1h-1ZM164 119h1v1h-1ZM176 120h1v1h-1ZM167 121h1v1h-1ZM168 121h1v1h-1ZM166 122h1v1h-1ZM176 122h1v1h-1ZM178 122h1v1h-1ZM165 123h1v1h-1ZM171 123h1v1h-1ZM175 123h1v1h-1ZM166 124h1v1h-1ZM173 124h1v1h-1ZM168 126h1v1h-1ZM168 129h1v1h-1ZM163 130h1v1h-1ZM170 131h1v1h-1ZM176 132h1v1h-1ZM179 132h1v1h-1ZM153 150h1v1h-1ZM156 150h1v1h-1ZM156 151h1v1h-1ZM147 152h1v1h-1ZM148 152h1v1h-1ZM150 154h1v1h-1ZM158 154h1v1h-1ZM159 154h1v1h-1ZM151 155h1v1h-1ZM152 156h1v1h-1ZM158 156h1v1h-1ZM160 156h1v1h-1ZM184 159h1v1h-1ZM185 159h1v1h-1ZM184 160h1v1h-1ZM149 161h1v1h-1ZM154 161h1v1h-1ZM155 161h1v1h-1ZM157 161h1v1h-1ZM152 162h1v1h-1ZM168 169h1v1h-1ZM169 170h1v1h-1ZM170 170h1v1h-1ZM170 172h1v1h-1ZM171 172h1v1h-1ZM167 176h1v1h-1ZM168 178h1v1h-1ZM169 178h1v1h-1ZM166 182h1v1h-1ZM170 184h1v1h-1ZM166 188h1v1h-1ZM154 189h1v1h-1ZM160 190h1v1h-1ZM166 190h1v1h-1ZM168 192h1v1h-1ZM169 192h1v1h-1ZM159 194h1v1h-1ZM160 195h1v1h-1ZM166 196h1v1h-1ZM168 200h1v1h-1ZM159 201h1v1h-1ZM165 202h1v1h-1ZM165 203h1v1h-1ZM171 203h1v1h-1ZM158 204h1v1h-1ZM166 204h1v1h-1ZM169 205h1v1h-1ZM157 206h1v1h-1ZM162 206h1v1h-1ZM163 206h1v1h-1ZM160 207h1v1h-1ZM170 208h1v1h-1ZM165 209h1v1h-1ZM171 209h1v1h-1ZM158 210h1v1h-1ZM166 211h1v1h-1ZM161 212h1v1h-1Z"/><path fill="rgb(216,24,48)" d="M166 121h1v1h-1ZM170 121h1v1h-1ZM178 124h1v1h-1ZM160 128h1v1h-1ZM173 130h1v1h-1ZM161 131h1v1h-1ZM182 131h1v1h-1ZM159 132h1v1h-1ZM160 132h1v1h-1ZM171 132h1v1h-1ZM182 132h1v1h-1ZM188 161h1v1h-1ZM185 162h1v1h-1ZM158 182h1v1h-1ZM179 191h1v1h-1ZM173 212h1v1h-1Z"/><path fill="rgb(216,48,24)" d="M164 132h1v1h-1ZM157 157h1v1h-1ZM152 159h1v1h-1ZM151 160h1v1h-1ZM155 190h1v1h-1ZM156 191h1v1h-1ZM156 198h1v1h-1ZM157 199h1v1h-1ZM154 203h1v1h-1ZM167 212h1v1h-1ZM168 212h1v1h-1Z"/><path fill="rgb(216,48,48)" d="M168 112h1v1h-1ZM169 112h1v1h-1ZM171 112h1v1h-1ZM171 113h1v1h-1ZM166 117h1v1h-1ZM177 125h1v1h-1ZM159 129h1v1h-1ZM173 131h1v1h-1ZM179 131h1v1h-1ZM153 132h1v1h-1ZM168 132h1v1h-1ZM164 133h1v1h-1ZM167 133h1v1h-1ZM184 133h1v1h-1ZM149 156h1v1h-1ZM152 157h1v1h-1ZM147 159h1v1h-1ZM188 159h1v1h-1ZM148 160h1v1h-1ZM172 160h1v1h-1ZM159 161h1v1h-1ZM171 161h1v1h-1ZM180 161h1v1h-1ZM190 161h1v1h-1ZM181 162h1v1h-1ZM182 162h1v1h-1ZM171 169h1v1h-1ZM159 173h1v1h-1ZM168 173h1v1h-1ZM159 174h1v1h-1ZM171 177h1v1h-1ZM171 180h1v1h-1ZM167 181h1v1h-1ZM167 183h1v1h-1ZM180 184h1v1h-1ZM158 186h1v1h-1ZM168 187h1v1h-1ZM154 188h1v1h-1ZM158 191h1v1h-1ZM180 198h1v1h-1ZM154 200h1v1h-1ZM166 201h1v1h-1ZM159 202h1v1h-1ZM171 202h1v1h-1ZM178 203h1v1h-1ZM180 204h1v1h-1ZM154 209h1v1h-1ZM176 209h1v1h-1ZM164 210h1v1h-1ZM166 210h1v1h-1ZM155 211h1v1h-1ZM156 211h1v1h-1ZM163 211h1v1h-1ZM174 212h1v1h-1Z"/><path fill="rgb(216,48,72)" d="M150 137h1v1h-1ZM151 143h1v1h-1ZM158 144h1v1h-1ZM190 152h1v1h-1ZM182 153h1v1h-1ZM191 153h1v1h-1ZM172 158h1v1h-1ZM158 180h1v1h-1ZM181 184h1v1h-1ZM181 191h1v1h-1ZM179 204h1v1h-1Z"/><path fill="rgb(216,72,48)" d="M168 117h1v1h-1ZM165 118h1v1h-1ZM156 129h1v1h-1ZM148 149h1v1h-1ZM161 152h1v1h-1ZM161 158h1v1h-1ZM158 161h1v1h-1ZM157 186h1v1h-1ZM169 211h1v1h-1Z"/><path fill="rgb(216,72,72)" d="M175 113h1v1h-1ZM154 128h1v1h-1ZM184 130h1v1h-1ZM164 131h1v1h-1ZM154 132h1v1h-1ZM150 136h1v1h-1ZM151 137h1v1h-1ZM192 139h1v1h-1ZM151 141h1v1h-1ZM150 148h1v1h-1ZM158 149h1v1h-1ZM190 151h1v1h-1ZM190 153h1v1h-1ZM170 157h1v1h-1ZM172 159h1v1h-1ZM191 161h1v1h-1ZM157 166h1v1h-1ZM168 166h1v1h-1ZM156 168h1v1h-1ZM156 181h1v1h-1ZM182 183h1v1h-1ZM159 187h1v1h-1ZM180 188h1v1h-1ZM171 190h1v1h-1ZM181 197h1v1h-1ZM181 202h1v1h-1ZM180 208h1v1h-1ZM179 210h1v1h-1ZM175 211h1v1h-1Z"/><path fill="rgb(216,72,96)" d="M190 132h1v1h-1ZM189 133h1v1h-1ZM182 169h1v1h-1ZM180 175h1v1h-1ZM181 181h1v1h-1ZM181 195h1v1h-1ZM180 209h1v1h-1Z"/><path fill="rgb(216,96,72)" d="M180 118h1v1h-1ZM155 128h1v1h-1Z"/><path fill="rgb(216,96,96)" d="M192 137h1v1h-1ZM182 144h1v1h-1ZM192 145h1v1h-1ZM182 151h1v1h-1ZM183 151h1v1h-1ZM182 167h1v1h-1Z"/><path fill="rgb(216,96,120)" d="M173 111h1v1h-1ZM190 131h1v1h-1Z"/><path fill="rgb(216,120,120)" d="M183 143h1v1h-1ZM183 144h1v1h-1Z"/><path fill="rgb(240,0,0)" d="M172 117h1v1h-1ZM165 207h1v1h-1Z"/><path fill="rgb(240,0,24)" d="M159 207h1v1h-1Z"/><path fill="rgb(240,24,24)" d="M176 116h1v1h-1ZM177 116h1v1h-1ZM168 120h1v1h-1ZM171 124h1v1h-1ZM170 125h1v1h-1ZM171 126h1v1h-1ZM156 152h1v1h-1ZM152 160h1v1h-1ZM153 161h1v1h-1ZM167 198h1v1h-1ZM167 205h1v1h-1ZM154 207h1v1h-1ZM158 207h1v1h-1ZM160 210h1v1h-1Z"/><path fill="rgb(240,24,48)" d="M171 130h1v1h-1ZM168 198h1v1h-1ZM158 209h1v1h-1Z"/><path fill="rgb(240,48,24)" d="M157 152h1v1h-1ZM155 204h1v1h-1ZM168 205h1v1h-1Z"/><path fill="rgb(240,48,48)" d="M166 115h1v1h-1ZM174 115h1v1h-1ZM171 116h1v1h-1ZM172 116h1v1h-1ZM178 117h1v1h-1ZM165 120h1v1h-1ZM169 121h1v1h-1ZM166 123h1v1h-1ZM172 124h1v1h-1ZM175 124h1v1h-1ZM173 125h1v1h-1ZM161 129h1v1h-1ZM159 131h1v1h-1ZM172 132h1v1h-1ZM153 151h1v1h-1ZM149 153h1v1h-1ZM150 153h1v1h-1ZM151 153h1v1h-1ZM147 158h1v1h-1ZM168 159h1v1h-1ZM150 161h1v1h-1ZM169 161h1v1h-1ZM183 161h1v1h-1ZM168 168h1v1h-1ZM157 173h1v1h-1ZM167 174h1v1h-1ZM172 174h1v1h-1ZM166 189h1v1h-1ZM167 191h1v1h-1ZM155 193h1v1h-1ZM158 193h1v1h-1ZM154 194h1v1h-1ZM168 194h1v1h-1ZM166 195h1v1h-1ZM154 202h1v1h-1ZM156 206h1v1h-1ZM167 207h1v1h-1ZM173 207h1v1h-1ZM164 208h1v1h-1ZM172 208h1v1h-1ZM170 210h1v1h-1ZM172 211h1v1h-1Z"/><path fill="rgb(240,48,72)" d="M175 114h1v1h-1ZM176 115h1v1h-1ZM177 122h1v1h-1ZM159 144h1v1h-1ZM169 158h1v1h-1ZM190 159h1v1h-1ZM188 160h1v1h-1ZM167 182h1v1h-1ZM169 194h1v1h-1ZM167 197h1v1h-1ZM169 200h1v1h-1ZM154 208h1v1h-1ZM172 210h1v1h-1Z"/><path fill="rgb(240,72,48)" d="M166 114h1v1h-1ZM169 117h1v1h-1ZM168 118h1v1h-1ZM176 119h1v1h-1ZM177 121h1v1h-1ZM157 193h1v1h-1ZM157 204h1v1h-1ZM166 208h1v1h-1ZM160 209h1v1h-1Z"/><path fill="rgb(240,72,72)" d="M167 116h1v1h-1ZM167 122h1v1h-1ZM176 125h1v1h-1ZM156 130h1v1h-1ZM168 130h1v1h-1ZM165 133h1v1h-1ZM166 133h1v1h-1ZM183 133h1v1h-1ZM157 150h1v1h-1ZM148 157h1v1h-1ZM153 159h1v1h-1ZM157 160h1v1h-1ZM170 161h1v1h-1ZM186 162h1v1h-1ZM169 165h1v1h-1ZM172 165h1v1h-1ZM160 167h1v1h-1ZM172 168h1v1h-1ZM171 173h1v1h-1ZM157 175h1v1h-1ZM168 177h1v1h-1ZM169 177h1v1h-1ZM168 184h1v1h-1ZM155 187h1v1h-1ZM169 187h1v1h-1ZM170 187h1v1h-1ZM167 188h1v1h-1ZM155 189h1v1h-1ZM171 189h1v1h-1ZM179 189h1v1h-1ZM170 191h1v1h-1ZM180 191h1v1h-1ZM154 195h1v1h-1ZM159 195h1v1h-1ZM170 195h1v1h-1ZM167 196h1v1h-1ZM170 196h1v1h-1ZM179 196h1v1h-1ZM155 197h1v1h-1ZM169 197h1v1h-1ZM179 197h1v1h-1ZM158 200h1v1h-1ZM154 201h1v1h-1ZM179 202h1v1h-1ZM174 207h1v1h-1ZM160 208h1v1h-1ZM166 209h1v1h-1ZM179 209h1v1h-1ZM161 211h1v1h-1ZM162 211h1v1h-1Z"/><path fill="rgb(240,72,96)" d="M183 130h1v1h-1ZM189 132h1v1h-1ZM191 138h1v1h-1ZM150 143h1v1h-1ZM191 145h1v1h-1ZM181 168h1v1h-1ZM158 175h1v1h-1ZM157 182h1v1h-1ZM180 195h1v1h-1Z"/><path fill="rgb(240,96,48)" d="M156 158h1v1h-1ZM156 159h1v1h-1Z"/><path fill="rgb(240,96,72)" d="M167 117h1v1h-1ZM179 117h1v1h-1ZM170 122h1v1h-1ZM169 125h1v1h-1ZM164 130h1v1h-1ZM151 148h1v1h-1ZM148 150h1v1h-1ZM148 151h1v1h-1ZM158 153h1v1h-1ZM159 153h1v1h-1ZM155 156h1v1h-1ZM181 158h1v1h-1ZM148 159h1v1h-1ZM180 159h1v1h-1ZM160 160h1v1h-1ZM183 160h1v1h-1ZM168 167h1v1h-1ZM170 169h1v1h-1ZM169 180h1v1h-1ZM158 197h1v1h-1ZM166 202h1v1h-1ZM158 203h1v1h-1Z"/><path fill="rgb(240,96,96)" d="M177 114h1v1h-1ZM153 129h1v1h-1ZM177 130h1v1h-1ZM178 130h1v1h-1ZM153 131h1v1h-1ZM150 142h1v1h-1ZM191 144h1v1h-1ZM182 152h1v1h-1ZM183 152h1v1h-1ZM151 156h1v1h-1ZM186 158h1v1h-1ZM191 159h1v1h-1ZM171 160h1v1h-1ZM180 160h1v1h-1ZM187 161h1v1h-1ZM158 165h1v1h-1ZM172 166h1v1h-1ZM160 168h1v1h-1ZM181 174h1v1h-1ZM171 181h1v1h-1ZM171 183h1v1h-1ZM180 183h1v1h-1ZM169 191h1v1h-1ZM181 196h1v1h-1Z"/><path fill="rgb(240,96,120)" d="M189 131h1v1h-1ZM160 142h1v1h-1ZM158 143h1v1h-1ZM182 182h1v1h-1Z"/><path fill="rgb(240,120,96)" d="M172 115h1v1h-1ZM180 119h1v1h-1ZM180 120h1v1h-1ZM155 131h1v1h-1ZM161 151h1v1h-1ZM183 158h1v1h-1ZM159 169h1v1h-1ZM175 208h1v1h-1Z"/><path fill="rgb(240,120,120)" d="M192 144h1v1h-1ZM191 151h1v1h-1ZM187 158h1v1h-1ZM159 166h1v1h-1ZM175 210h1v1h-1Z"/><path fill="rgb(240,144,120)" d="M179 121h1v1h-1Z"/><path fill="rgb(255,24,24)" d="M171 125h1v1h-1Z"/><path fill="rgb(255,48,48)" d="M172 126h1v1h-1ZM158 208h1v1h-1Z"/><path fill="rgb(255,48,72)" d="M171 131h1v1h-1ZM185 160h1v1h-1Z"/><path fill="rgb(255,72,48)" d="M167 125h1v1h-1ZM152 152h1v1h-1ZM169 207h1v1h-1Z"/><path fill="rgb(255,72,72)" d="M176 123h1v1h-1ZM170 124h1v1h-1ZM159 130h1v1h-1ZM172 130h1v1h-1ZM177 132h1v1h-1ZM157 151h1v1h-1ZM159 156h1v1h-1ZM153 160h1v1h-1ZM185 161h1v1h-1ZM167 175h1v1h-1ZM172 175h1v1h-1ZM179 190h1v1h-1ZM156 193h1v1h-1ZM167 195h1v1h-1ZM159 196h1v1h-1ZM170 204h1v1h-1ZM164 209h1v1h-1Z"/><path fill="rgb(255,72,96)" d="M177 124h1v1h-1ZM172 131h1v1h-1ZM178 132h1v1h-1ZM190 160h1v1h-1ZM155 207h1v1h-1Z"/><path fill="rgb(255,96,72)" d="M167 113h1v1h-1ZM177 118h1v1h-1ZM156 157h1v1h-1ZM152 158h1v1h-1ZM155 160h1v1h-1ZM169 169h1v1h-1ZM170 177h1v1h-1ZM159 190h1v1h-1ZM166 203h1v1h-1ZM156 204h1v1h-1ZM167 204h1v1h-1ZM161 207h1v1h-1ZM168 207h1v1h-1Z"/><path fill="rgb(255,96,96)" d="M170 113h1v1h-1ZM177 115h1v1h-1ZM170 116h1v1h-1ZM168 119h1v1h-1ZM167 120h1v1h-1ZM170 123h1v1h-1ZM172 125h1v1h-1ZM161 130h1v1h-1ZM160 131h1v1h-1ZM168 131h1v1h-1ZM177 131h1v1h-1ZM184 132h1v1h-1ZM151 142h1v1h-1ZM152 149h1v1h-1ZM149 152h1v1h-1ZM160 157h1v1h-1ZM169 159h1v1h-1ZM149 160h1v1h-1ZM156 160h1v1h-1ZM169 160h1v1h-1ZM191 160h1v1h-1ZM156 167h1v1h-1ZM157 174h1v1h-1ZM158 181h1v1h-1ZM155 188h1v1h-1ZM167 190h1v1h-1ZM168 191h1v1h-1ZM155 200h1v1h-1ZM170 201h1v1h-1ZM179 203h1v1h-1ZM157 207h1v1h-1ZM163 207h1v1h-1ZM170 209h1v1h-1ZM172 209h1v1h-1ZM155 210h1v1h-1ZM157 210h1v1h-1Z"/><path fill="rgb(255,96,120)" d="M177 123h1v1h-1ZM160 129h1v1h-1ZM178 131h1v1h-1ZM184 131h1v1h-1ZM183 132h1v1h-1ZM151 136h1v1h-1ZM160 143h1v1h-1ZM191 152h1v1h-1ZM158 173h1v1h-1ZM157 181h1v1h-1ZM181 183h1v1h-1ZM181 190h1v1h-1ZM180 197h1v1h-1ZM180 203h1v1h-1Z"/><path fill="rgb(255,120,96)" d="M165 119h1v1h-1ZM177 119h1v1h-1ZM177 120h1v1h-1ZM168 125h1v1h-1ZM165 129h1v1h-1ZM152 150h1v1h-1ZM152 151h1v1h-1ZM154 157h1v1h-1ZM153 158h1v1h-1ZM157 159h1v1h-1ZM154 160h1v1h-1ZM172 167h1v1h-1ZM169 173h1v1h-1ZM170 180h1v1h-1ZM167 189h1v1h-1ZM157 191h1v1h-1ZM155 194h1v1h-1ZM167 201h1v1h-1ZM158 202h1v1h-1ZM155 203h1v1h-1ZM169 204h1v1h-1ZM167 208h1v1h-1ZM163 210h1v1h-1ZM167 211h1v1h-1ZM168 211h1v1h-1Z"/><path fill="rgb(255,120,120)" d="M174 114h1v1h-1ZM173 115h1v1h-1ZM167 124h1v1h-1ZM176 124h1v1h-1ZM167 129h1v1h-1ZM153 130h1v1h-1ZM192 138h1v1h-1ZM160 149h1v1h-1ZM148 158h1v1h-1ZM150 160h1v1h-1ZM170 160h1v1h-1ZM181 160h1v1h-1ZM181 161h1v1h-1ZM182 161h1v1h-1ZM186 161h1v1h-1ZM157 167h1v1h-1ZM168 176h1v1h-1ZM171 176h1v1h-1ZM168 181h1v1h-1ZM171 182h1v1h-1ZM180 182h1v1h-1ZM169 184h1v1h-1ZM180 190h1v1h-1ZM155 196h1v1h-1ZM169 196h1v1h-1ZM180 196h1v1h-1ZM168 197h1v1h-1ZM158 201h1v1h-1ZM180 202h1v1h-1ZM170 203h1v1h-1ZM156 207h1v1h-1ZM162 207h1v1h-1ZM155 208h1v1h-1ZM155 209h1v1h-1ZM156 210h1v1h-1ZM161 210h1v1h-1ZM173 211h1v1h-1ZM174 211h1v1h-1Z"/><path fill="rgb(255,120,144)" d="M160 130h1v1h-1ZM183 131h1v1h-1ZM182 168h1v1h-1ZM181 175h1v1h-1ZM181 189h1v1h-1Z"/><path fill="rgb(255,144,96)" d="M157 158h1v1h-1ZM156 190h1v1h-1ZM167 203h1v1h-1Z"/><path fill="rgb(255,144,120)" d="M170 114h1v1h-1ZM168 116h1v1h-1ZM178 121h1v1h-1ZM168 122h1v1h-1ZM169 124h1v1h-1ZM166 129h1v1h-1ZM154 131h1v1h-1ZM165 132h1v1h-1ZM167 132h1v1h-1ZM149 149h1v1h-1ZM158 152h1v1h-1ZM150 156h1v1h-1ZM158 157h1v1h-1ZM160 158h1v1h-1ZM181 159h1v1h-1ZM183 159h1v1h-1ZM187 159h1v1h-1ZM170 165h1v1h-1ZM157 168h1v1h-1ZM158 169h1v1h-1ZM170 173h1v1h-1ZM168 174h1v1h-1ZM171 174h1v1h-1ZM168 183h1v1h-1ZM159 188h1v1h-1ZM159 189h1v1h-1ZM158 190h1v1h-1ZM156 197h1v1h-1ZM157 197h1v1h-1ZM156 200h1v1h-1ZM168 201h1v1h-1ZM167 202h1v1h-1ZM170 202h1v1h-1ZM157 203h1v1h-1ZM168 204h1v1h-1ZM169 208h1v1h-1ZM173 208h1v1h-1ZM169 209h1v1h-1ZM175 209h1v1h-1ZM169 210h1v1h-1Z"/><path fill="rgb(255,144,144)" d="M174 112h1v1h-1ZM168 113h1v1h-1ZM169 113h1v1h-1ZM174 113h1v1h-1ZM167 114h1v1h-1ZM167 115h1v1h-1ZM166 120h1v1h-1ZM167 123h1v1h-1ZM155 130h1v1h-1ZM159 142h1v1h-1ZM159 149h1v1h-1ZM151 152h1v1h-1ZM149 157h1v1h-1ZM171 158h1v1h-1ZM149 159h1v1h-1ZM171 159h1v1h-1ZM159 160h1v1h-1ZM187 160h1v1h-1ZM171 165h1v1h-1ZM169 168h1v1h-1ZM157 169h1v1h-1ZM158 174h1v1h-1ZM168 175h1v1h-1ZM168 182h1v1h-1ZM170 183h1v1h-1ZM156 187h1v1h-1ZM170 188h1v1h-1ZM180 189h1v1h-1ZM170 190h1v1h-1ZM155 195h1v1h-1ZM168 195h1v1h-1ZM169 195h1v1h-1ZM158 196h1v1h-1ZM168 196h1v1h-1ZM157 200h1v1h-1ZM155 201h1v1h-1ZM157 209h1v1h-1ZM173 209h1v1h-1ZM173 210h1v1h-1ZM174 210h1v1h-1Z"/><path fill="rgb(255,144,168)" d="M159 143h1v1h-1ZM181 182h1v1h-1Z"/><path fill="rgb(255,168,120)" d="M178 118h1v1h-1ZM182 158h1v1h-1Z"/><path fill="rgb(255,168,144)" d="M172 112h1v1h-1ZM172 113h1v1h-1ZM172 114h1v1h-1ZM170 115h1v1h-1ZM169 116h1v1h-1ZM168 124h1v1h-1ZM165 130h1v1h-1ZM165 131h1v1h-1ZM166 132h1v1h-1ZM158 150h1v1h-1ZM160 150h1v1h-1ZM149 151h1v1h-1ZM158 151h1v1h-1ZM150 152h1v1h-1ZM160 152h1v1h-1ZM159 157h1v1h-1ZM151 159h1v1h-1ZM160 159h1v1h-1ZM158 160h1v1h-1ZM182 160h1v1h-1ZM169 166h1v1h-1ZM159 167h1v1h-1ZM169 167h1v1h-1ZM170 168h1v1h-1ZM171 168h1v1h-1ZM171 175h1v1h-1ZM170 176h1v1h-1ZM157 187h1v1h-1ZM158 187h1v1h-1ZM168 188h1v1h-1ZM168 190h1v1h-1ZM169 190h1v1h-1ZM158 194h1v1h-1ZM169 201h1v1h-1ZM155 202h1v1h-1ZM156 203h1v1h-1ZM161 208h1v1h-1ZM161 209h1v1h-1ZM162 210h1v1h-1ZM167 210h1v1h-1ZM168 210h1v1h-1Z"/><path fill="rgb(255,168,168)" d="M151 157h1v1h-1ZM149 158h1v1h-1ZM159 168h1v1h-1ZM170 182h1v1h-1ZM169 183h1v1h-1ZM157 208h1v1h-1ZM174 208h1v1h-1Z"/><path fill="rgb(255,192,144)" d="M178 120h1v1h-1ZM167 130h1v1h-1ZM154 159h1v1h-1ZM155 159h1v1h-1ZM156 189h1v1h-1Z"/><path fill="rgb(255,192,168)" d="M179 118h1v1h-1Z"/></g></svg>